<?xml version="1.0" encoding="UTF-8" standalone="no"?>
<svg
   viewBox="0 0 200 46.000001"
   version="1.1"
   id="svg200"
   width="200"
   height="46"
   xmlns="http://www.w3.org/2000/svg"
   xmlns:svg="http://www.w3.org/2000/svg">
  <defs
     id="defs184">
    <style
       id="style182">.cls-1{fill:#fff;}.cls-2{fill:none;}</style>
  </defs>
  <path
     id="path186"
     style="fill:#000080;stroke-width:0.184075"
     class="cls-1"
     d="m 153.59399,0 a 0.90381846,0.90380064 0 0 0 -0.90205,0.90202195 V 16.548269 c -2.65071,-3.49739 -6.53467,-5.559229 -11.24704,-5.559229 -8.92773,0 -15.38877,7.234236 -15.38877,17.450311 0,10.289694 6.46104,17.52365 15.38877,17.52365 4.71237,0 8.59633,-2.06148 11.24704,-5.55887 v 3.883863 a 0.90381846,0.90380064 0 0 0 0.90205,0.902042 h 7.62086 a 0.90381846,0.90380064 0 0 0 0.90169,-0.902042 V 0.92036159 A 0.93143001,0.93141164 0 0 0 161.21485,0 Z M 74.052555,10.965321 c -0.247892,-0.0015 -0.385052,0.006 -0.385052,0.006 -9.756075,0 -17.192511,7.307734 -17.192511,17.394952 0,10.271274 7.74951,17.579008 17.708071,17.579008 h 0.25778 c 0.220892,0 0.441712,-0.018 0.662605,-0.0366 2.264146,-0.202476 8.191506,-1.141178 11.670559,-5.816644 l 11.762597,-18.020859 0.16538,-0.239435 c 0.717898,-1.104439 2.687526,-2.889822 6.074546,-2.889822 4.97007,0 9.18552,4.325672 9.18552,9.498129 0,5.172456 -4.19704,9.571809 -9.18552,9.571809 a 8.344214,8.3440495 0 0 1 -3.73655,-1.012401 c -1.527841,-0.828322 -3.12953,-2.227295 -4.454884,-4.141656 a 0.30004563,0.30003971 0 0 0 -0.423162,-0.092 0.22273326,0.22272887 0 0 0 -0.09204,0.092 l -4.086726,6.295174 a 0.80441683,0.80440097 0 0 0 0.03704,0.920362 c 4.69396,6.203276 12.682762,5.890362 12.737992,5.890362 9.88493,0 18.16862,-8.00706 18.16862,-17.52365 0,-9.516589 -8.22825,-17.431611 -18.13159,-17.431611 0,0 -9.148853,-0.386772 -13.658736,7.233875 L 80.681131,34.330393 c 0,0 -0.736308,1.233296 -1.656694,1.932782 -0.883567,0.681066 -2.466921,1.362212 -4.896736,1.362212 -3.939247,0 -7.28931,-2.577028 -7.951988,-6.074418 h 11.228703 a 0.97192698,0.97190782 0 0 0 0.828346,-0.460191 L 86.405857,18.50009 a 1.0308316,1.0308113 0 0 0 0.03668,-1.030739 c -3.495159,-6.072119 -10.654721,-6.49301 -12.389968,-6.50333 z m -55.755221,0.0424 C 8.3939964,11.00772 0,18.959481 0,28.457671 0,37.955841 8.3387016,45.9816 18.223631,46 c 5.190968,0 9.479973,-1.969521 12.701318,-5.172377 l 0.05536,-0.0554 a 0.90565922,0.90564136 0 0 0 -0.11074,-1.270174 l -4.693967,-3.957581 a 1.2075456,1.2075218 0 0 0 -1.601327,0.018 c -1.730322,1.509389 -4.049553,2.48499 -6.295291,2.48499 -4.970077,0 -9.1118158,-4.380733 -9.1118158,-9.626827 0,-5.117238 4.1415958,-9.443111 9.0564488,-9.443111 a 9.6309126,9.6307227 0 0 1 6.166582,2.356292 1.2277941,1.2277699 0 0 0 1.601328,0.018 l 4.693964,-4.01294 0.05536,-0.055 a 0.9203854,0.92036725 0 0 0 -0.0184,-1.288514 C 27.574738,12.921341 23.359363,11.00704 18.29725,11.00704 Z m 165.098806,0 c -9.75608,0 -17.19287,7.307714 -17.19287,17.394932 0,10.271294 7.74951,17.579028 17.70807,17.579028 4.5467,0 9.82986,-1.785524 12.94076,-4.50981 l 0.0367,-0.037 a 0.90565922,0.90564136 0 0 0 0.0184,-1.288515 l -4.58322,-4.675545 a 1.1872972,1.1872738 0 0 0 -1.58336,-0.128798 c -1.85918,1.380552 -4.58323,2.300934 -6.88419,2.300934 -3.93925,0 -7.27126,-2.595448 -7.95235,-6.074438 h 23.21205 a 0.9203854,0.92036725 0 0 0 0.88371,-0.938702 C 199.70528,18.573009 193.61246,11.00766 183.3962,11.00766 Z m -128.817286,0.018 c -4.657144,0.331333 -8.394061,2.908141 -10.455723,6.95776 v -5.301114 a 0.90381846,0.90380064 0 0 0 -0.901689,-0.902021 h -7.620864 a 0.90381846,0.90380064 0 0 0 -0.902048,0.902021 v 31.605268 a 0.90381846,0.90380064 0 0 0 0.902048,0.902042 h 7.620864 a 0.90381846,0.90380064 0 0 0 0.901689,-0.902042 V 29.230656 c 0,-6.000801 4.104925,-9.940182 10.584433,-10.253115 a 0.90934076,0.90932283 0 0 0 0.865378,-0.902022 v -6.129438 a 0.20064402,0.20064006 0 0 0 -0.0184,-0.092 0.9075,0.90748211 0 0 0 -0.975752,-0.828323 z m 19.512171,7.933481 c 3.810391,0 6.73722,2.48493 7.45512,5.816663 H 66.212381 c 0.57064,-3.515809 4.123475,-5.816663 7.878644,-5.816663 z m 70.059665,0 c 4.97007,0 8.52291,3.939101 8.52291,9.49813 0,5.632627 -3.55284,9.571808 -8.52291,9.571808 -5.24619,0 -8.92774,-3.957581 -8.92774,-9.571808 0,-5.559029 3.69995,-9.49813 8.92774,-9.49813 z m 39.6136,0 c 3.8104,0 6.71882,2.521749 7.45513,5.816663 h -15.35211 c 0.64427,-3.626247 4.3443,-5.816663 7.89698,-5.816663 z" />
</svg>
